<svg width="250" height="64" viewBox="0 0 250 64" fill="none" xmlns="http://www.w3.org/2000/svg">
<path d="M47.1479 58.1727C46.7314 55.277 47.128 46.233 46.9991 42.4745C47.376 37.1889 44.1828 31.4174 38.8476 30.0489C37.0428 29.5134 35.4561 29.5729 33.5818 29.5729C31.1423 29.5729 27.1756 29.5729 25.0733 29.5729C22.961 29.6721 23.1594 28.2738 23.4271 26.8061C24.4089 21.352 27.9591 16.0465 32.967 13.5674C40.5334 10.037 50.5592 11.1774 56.6382 17.1076C64.6608 25.0112 64.0162 38.2698 63.7683 48.9799C63.6592 49.8823 63.322 50.3286 62.4493 50.7748C60.0792 51.9648 54.0003 54.9795 50.3311 56.8042C48.5957 57.5876 47.7627 58.2619 47.1776 58.1925H47.1578L47.1479 58.1727Z" fill="#7CC1F6"/>
<path d="M37.3403 38.9442C37.5684 39.6979 37.3105 40.6598 37.132 41.463C35.9023 46.6693 32.9868 51.4293 28.1177 53.8589C21.2653 57.181 12.3105 55.8224 6.74725 50.5963C-1.32494 43.0299 0.132812 29.6126 0.0733121 18.9323C0.0733121 17.4349 0.0633954 16.1953 1.54098 15.4019C4.16891 14.0037 8.86943 11.7823 12.1221 10.1362C13.56 9.442 14.5021 8.91642 14.9087 8.89659C15.4343 8.92634 15.2855 9.66017 15.3351 10.0866C15.3351 12.6451 15.3351 19.5868 15.3351 23.7816C15.2459 27.2921 15.3847 30.3563 17.1499 33.5693C18.6671 36.108 21.7016 37.774 24.5576 38.0814C27.6417 38.2103 32.2629 38.0814 35.4065 38.1409C36.1304 38.1806 37.0031 38.1905 37.3204 38.9045L37.3403 38.964V38.9442Z" fill="#7CC1F6"/>
<path d="M75.5493 47.3907L76.7591 40.6672C80.3887 42.2142 84.2165 43.0869 88.1832 43.0869C91.6144 43.0869 93.1515 42.2142 93.1515 40.5978C93.1515 39.1202 92.011 38.4459 90.2657 37.7715L84.2859 35.213C79.3772 33.1305 76.3526 30.4431 76.3526 25.6731C76.3526 19.2174 81.9257 16.0639 90.3252 16.0639C94.4902 16.0639 99.0618 16.8076 101.68 18.0075L100.341 24.9294C97.9214 23.9873 94.163 23.2535 90.7318 23.2535C87.5088 23.2535 86.1602 24.1261 86.1602 25.812C86.1602 27.2202 86.9634 27.7656 88.6493 28.4994L95.7695 31.524C100.609 33.6065 102.959 36.7005 102.959 40.7267C102.959 46.9742 97.1776 50.336 88.6493 50.336C83.681 50.336 78.6334 49.1956 75.5493 47.3808V47.3907Z" fill="#0C2639"/>
<path d="M137.578 19.029V62.712H128.108V46.5181C125.42 48.8683 122.059 50.3459 118.36 50.3459C110.099 50.3459 104.923 44.2273 104.923 33.547C105.121 23.194 111.577 16.0738 122.664 16.0738C127.096 16.0738 132.878 17.2142 137.578 19.029ZM128.098 39.5863V24.7311C126.62 24.1956 125.004 23.789 123.06 23.789C117.953 23.789 114.661 27.6168 114.661 33.5966C114.661 39.1698 117.219 42.5315 121.315 42.5315C123.665 42.5315 126.154 41.3911 128.098 39.5764V39.5863Z" fill="#0C2639"/>
<path d="M172.584 16.7481V49.6716H164.453L163.51 46.1809C160.486 48.3328 156.658 50.3459 152.622 50.3459C147.316 50.3459 142.14 46.8552 142.14 36.9088V16.7481H151.68V35.8378C151.68 41.0837 153.564 42.5613 156.45 42.5613C158.463 42.5613 160.823 41.758 163.104 40.4094V16.7481H172.574H172.584Z" fill="#0C2639"/>
<path d="M178.098 6.32567C178.098 3.43991 180.518 1.28798 183.81 1.28798C187.102 1.28798 189.591 3.43991 189.591 6.32567C189.591 9.21143 187.172 11.4328 183.81 11.4328C180.448 11.4328 178.098 9.28084 178.098 6.32567ZM179.109 17.4125L188.58 16.0738V49.6716H179.109V17.4125Z" fill="#0C2639"/>
<path d="M219.024 17.7497L217.547 26.4169L217.279 26.6152C216.138 25.6731 213.986 24.9988 211.973 24.9988C209.484 24.9988 206.727 26.2086 204.585 28.0234V49.6616H195.046V16.6787L203.514 16.0738L204.585 22.7973C207.074 18.7612 210.159 16.0738 213.788 16.0738C215.533 16.0738 217.884 16.7481 219.034 17.7497H219.024Z" fill="#0C2639"/>
<path d="M248.992 35.1535H228.762C229.506 40.33 232.59 42.8786 237.568 42.8786C240.662 42.8786 243.35 42.2737 245.432 41.2622L247.247 47.718C244.758 49.265 239.919 50.4054 235.684 50.4054C225.668 50.4054 218.816 43.8901 218.816 33.1305C218.816 22.9857 225.272 16.0639 235.278 16.0639C244.421 16.0639 249.994 22.3808 249.994 33.3388L248.982 35.1535H248.992ZM228.772 29.7787H240.335C239.8 25.1376 238.054 23.3923 235.03 23.3923C231.807 23.3923 229.456 25.4054 228.782 29.7787H228.772Z" fill="#0C2639"/>
</svg>
